<?xml version="1.0" standalone="no"?>
<!DOCTYPE svg PUBLIC "-//W3C//DTD SVG 20010904//EN"
 "http://www.w3.org/TR/2001/REC-SVG-20010904/DTD/svg10.dtd">
<svg version="1.0" xmlns="http://www.w3.org/2000/svg"
 width="2251.000000pt" height="2251.000000pt" viewBox="0 0 2251.000000 2251.000000"
 preserveAspectRatio="xMidYMid meet">
<metadata>
Created by potrace 1.14, written by Peter Selinger 2001-2017
</metadata>
<g transform="translate(0.000000,2251.000000) scale(0.100000,-0.100000)"
fill="#000000" stroke="none">
<path d="M13639 22436 c-2 -2 -62 -7 -134 -10 -71 -4 -146 -9 -165 -11 -19 -2
-78 -7 -130 -11 -52 -3 -104 -8 -114 -10 -11 -2 -48 -6 -83 -9 -35 -3 -78 -7
-96 -10 -38 -5 -174 -23 -237 -30 -46 -6 -85 -12 -130 -20 -14 -2 -43 -7 -65
-10 -23 -3 -52 -8 -65 -10 -14 -3 -41 -8 -60 -11 -19 -3 -42 -7 -50 -9 -8 -2
-33 -7 -55 -10 -22 -3 -94 -17 -160 -31 -66 -13 -131 -27 -145 -30 -88 -18
-305 -70 -415 -99 -71 -20 -139 -37 -150 -40 -25 -6 -127 -37 -275 -83 -63
-20 -119 -37 -125 -38 -60 -14 -590 -210 -690 -254 -22 -10 -83 -36 -135 -58
-87 -37 -127 -54 -290 -129 -387 -178 -887 -457 -1254 -702 -71 -47 -137 -90
-145 -96 -90 -55 -450 -322 -626 -464 -443 -357 -870 -766 -1240 -1186 -38
-44 -72 -82 -75 -85 -3 -3 -35 -41 -70 -84 -36 -44 -75 -90 -87 -104 -12 -13
-41 -49 -65 -80 -24 -32 -46 -59 -49 -62 -14 -12 -256 -340 -350 -475 -165
-235 -312 -467 -474 -746 -95 -164 -313 -585 -375 -724 -12 -27 -35 -78 -51
-111 -30 -64 -51 -113 -138 -324 -28 -69 -56 -134 -61 -145 -37 -82 -218 -606
-255 -740 -9 -33 -23 -80 -30 -105 -81 -267 -215 -844 -249 -1070 -3 -19 -12
-78 -20 -130 -9 -52 -18 -113 -21 -135 -3 -22 -8 -51 -10 -65 -3 -14 -7 -47
-10 -75 -3 -27 -8 -68 -11 -90 -10 -68 -12 -88 -19 -165 -3 -41 -8 -86 -10
-100 -2 -14 -7 -68 -10 -121 -4 -52 -8 -109 -10 -125 -8 -66 -19 -350 -19
-503 l-1 -164 280 -95 c237 -80 1254 -423 1920 -647 105 -35 532 -180 950
-321 418 -141 778 -262 800 -269 22 -6 47 -15 55 -18 8 -4 197 -68 420 -142
655 -220 982 -330 1190 -401 107 -36 200 -67 205 -68 6 -2 17 -6 25 -9 15 -6
745 -253 790 -267 19 -6 21 -9 10 -14 -12 -5 -649 -221 -915 -311 -38 -13
-257 -87 -485 -165 -228 -78 -460 -156 -515 -175 -107 -35 -832 -282 -1530
-520 -236 -80 -437 -148 -445 -150 -8 -2 -76 -25 -150 -51 -139 -48 -1002
-341 -1100 -373 -30 -10 -262 -89 -515 -175 -253 -87 -568 -193 -700 -238
-132 -44 -243 -84 -248 -87 -7 -7 -9 -175 -22 -1841 -4 -415 -8 -993 -11
-1285 -9 -1055 -16 -4865 -9 -4865 4 0 26 19 50 42 35 36 288 281 540 523 35
33 161 155 281 271 121 116 246 237 279 269 33 31 159 153 280 270 121 117
248 239 282 271 33 33 157 151 273 264 304 293 611 590 830 800 91 88 474 457
570 550 122 117 286 276 535 515 125 121 262 253 304 294 42 40 151 145 243
233 l166 160 869 3 c477 1 886 5 908 8 22 2 84 8 139 12 54 4 110 8 125 10 14
2 60 6 101 10 41 4 82 8 90 10 8 1 44 6 80 10 36 4 72 9 81 10 9 2 40 6 70 10
48 6 387 65 464 80 496 100 1136 298 1570 487 39 17 84 36 100 43 186 80 577
275 752 377 32 18 66 38 75 43 226 129 679 429 813 537 6 5 35 27 65 50 67 51
235 185 270 214 284 240 606 547 815 778 44 48 90 98 102 112 12 13 54 63 95
111 40 48 75 90 78 93 3 3 24 27 45 55 22 27 46 56 53 64 26 27 299 396 362
488 34 51 66 90 70 88 5 -3 14 11 20 30 6 19 54 103 107 187 397 633 712 1340
932 2093 68 233 174 701 207 919 3 21 8 48 10 60 2 11 6 41 10 66 3 25 9 70
14 100 5 30 11 78 15 105 3 28 7 68 10 90 2 22 7 69 10 105 3 36 7 76 10 90 4
25 15 163 20 275 2 33 6 163 10 289 l6 228 -26 -6 c-16 -4 -24 -3 -21 3 9 14
7 15 -216 92 -335 116 -384 133 -623 217 -366 128 -836 291 -885 308 -25 9
-52 18 -60 21 -32 12 -361 127 -480 168 -69 24 -217 76 -330 115 -510 179
-619 216 -830 290 -124 43 -315 110 -425 148 -243 85 -374 131 -480 167 -44
15 -94 33 -112 41 -17 8 -34 14 -38 14 -7 0 -513 176 -780 271 -77 28 -147 52
-155 54 -8 2 -40 12 -70 24 -30 11 -161 57 -290 102 -129 44 -332 115 -450
156 -118 41 -224 77 -234 81 -14 4 0 11 45 27 35 12 242 81 459 154 217 73
404 136 415 141 11 5 171 59 355 121 509 170 2365 794 3105 1044 572 193 1982
667 2065 695 l85 28 -2 723 c-1 645 -4 1200 -18 3364 -2 325 -4 688 -4 807
l-1 216 -2349 1 c-1291 0 -2350 -1 -2352 -3z"/>
</g>
</svg>
